# xmcd
#
# Track frame offsets:
#	150
#	15925
#	30793
#	48851
#	63160
#	81145
#	99717
#	120936
#	135405
#	151896
#	165434
#	185647
#
# Disc length: 2669 seconds
#
# Revision: 0
# Processed by: cddbd v1.5.2PL0 Copyright (c) Steve Scherf et al.
# Submitted via: audiograbber 1.83.01
#
DISCID=7b0a6b0c
DTITLE=BUKIS-YONICS - EXITOS DE BUKIS Y YONICS
DYEAR=1900
DGENRE=
TTITLE0=BUKIS - MI FANTASIA
TTITLE1=YONICS - SOY YO
TTITLE2=BUKIS - NECESITO UNA COMPAÑERA
TTITLE3=YONICS - Y TE AMO
TTITLE4=BUKIS - Y AHORA TE VAS
TTITLE5=YONICS - ROSAS BLANCAS
TTITLE6=BUKIS - TUS MENTIRAS
TTITLE7=YONICS - UN DOLOR
TTITLE8=BUKIS - NECESITA DE TI
TTITLE9=YONICS - NI TU AMIGO NI TU AMANTE
TTITLE10=BUKIS - SI ME RECUERDAS
TTITLE11=YONICS - TITERE
EXTD=
EXTT0=
EXTT1=
EXTT2=
EXTT3=
EXTT4=
EXTT5=
EXTT6=
EXTT7=
EXTT8=
EXTT9=
EXTT10=
EXTT11=
PLAYORDER=
